<svg id="Layer_1" data-name="Layer 1" xmlns="http://www.w3.org/2000/svg" viewBox="0 0 1583.25 674.37"><defs><style>.cls-1{fill:#fff;}</style></defs><title>logo</title><path class="cls-1" d="M121.35,355.19q0,28.17-14.08,42.77t-45.9,14.61q-31.82,0-45.9-15.13T1.38,350V99.59q0-62.6,60-62.6,31.81,0,45.9,14.08t14.08,43.3H95.27q0-19.82-9.65-30.78a31,31,0,0,0-24.26-11q-33.91,0-33.91,41.73V355.19q0,19.3,9.13,30.52t24.78,11.21q15.65,0,24.78-10.43t9.13-31.3Z"/><path class="cls-1" d="M303.92,350q0,32.86-13.82,47.73t-46.17,14.87q-31.82,0-45.9-15.13T183.95,350V99.59q0-62.6,60-62.6,32.86,0,46.43,14.61t13.56,48Zm-26.08,5.22V94.38q0-19.82-9.65-30.78a31,31,0,0,0-24.26-11Q210,52.64,210,94.38V355.19q0,19.3,9.13,30.52t24.78,11.21q15.65,0,24.78-10.43T277.84,355.19Z"/><path class="cls-1" d="M486.49,407.36H468.24l-83.47-277v277H366.51V41.69l18.73-.15,83.46,277-.47-276.84h18.26Z"/><path class="cls-1" d="M666.45,321.44q0,50.54-46.95,90.65-41.74,35.43-80.33,35.43v-12q36,0,69.64-32.56t33.65-60.7q0-30.73-28.17-70.86l-28.17-38.55q-18.27-24.49-36-49.5-19.3-29.68-19.3-56.27,0-50.53,46.95-90.65Q619.5,1,658.1,1V13q-36,0-69.64,32.56t-33.64,60.7q0,30.75,28.17,70.86l28.17,38.55,36.52,50Q666.45,294.86,666.45,321.44Z"/><polygon class="cls-1" points="731.65 54.73 794.25 54.73 794.25 41.69 705.57 41.69 705.57 54.73 705.57 394.84 705.57 400.69 705.57 407.88 794.25 407.88 794.25 394.84 731.65 394.84 731.65 54.73"/><polygon class="cls-1" points="738.77 210.45 746.26 221.14 802.06 182.01 794.24 171.57 738.77 210.45"/><path class="cls-1" d="M950.74,128.4q0,34-15.13,57.2t-45.38,29.51q29.73,5.74,43.3,28.73,12,20.38,12,55.9V407.36h-25V299.9q0-42.77-10.17-59.21t-39.9-21.13v-7.82Q899.61,207,910,189.31t10.43-60.51q0-38.07-11-53.21Q897,58.38,862.06,54.73V407.36H836V41.69h26.08q45.9,0,68.33,24Q950.73,87.66,950.74,128.4Z"/><path class="cls-1" d="M1107,41.69l-59.79,370.75-60-370.75,15.85,0,44.15,210.82,44.12-210.82Z"/><path class="cls-1" d="M1180.25,407.36h-26.08V41.69h26.08Z"/><path class="cls-1" d="M1368,355.19q0,28.17-14.08,42.77T1308,412.57q-31.82,0-45.9-15.13T1248.06,350V99.59q0-62.6,60-62.6,31.81,0,45.91,14.08T1368,94.38H1342q0-19.82-9.65-30.78a31,31,0,0,0-24.26-11q-33.92,0-33.91,41.73V355.19q0,19.3,9.13,30.52T1308,396.92q15.65,0,24.78-10.43t9.13-31.3Z"/><polygon class="cls-1" points="1456.71 54.73 1519.31 54.73 1519.31 41.69 1430.63 41.69 1430.63 49.51 1430.63 54.73 1430.63 394.84 1430.63 401.87 1430.63 407.88 1519.31 407.88 1519.31 394.84 1456.71 394.84 1456.71 54.73"/><polygon class="cls-1" points="1463.83 210.45 1471.33 221.14 1527.12 182.01 1519.3 171.57 1463.83 210.45"/><path class="cls-1" d="M47.21,496.65H2.27v-8.16H102v8.16H57V626.16h-9.8Z"/><path class="cls-1" d="M115.25,481.12h9.81v64.55h.41a35.18,35.18,0,0,1,13.27-14.09,36.28,36.28,0,0,1,19.82-5.73c9.19,0,34.11,4.7,34.11,41.27v59h-9.8v-58c0-17.77-6.94-33.71-27-33.71-13.89,0-25.33,10-29.62,22.07a28.7,28.7,0,0,0-1.22,9.8v59.85h-9.81Z"/><path class="cls-1" d="M226.2,576.11c0,31.25,17,43.72,37.39,43.72,14.3,0,21.65-2.87,27.17-5.51l2.45,7.56c-3.68,2-13.69,6.32-30.85,6.32-28.19,0-45.76-20.42-45.76-49.23,0-32.68,18.79-53.12,44.13-53.12,32.07,0,38.2,30.24,38.2,44.33a25.07,25.07,0,0,1-.41,5.92Zm62.52-7.76c.19-13.69-5.52-34.32-29.22-34.32-21.66,0-31,19.2-32.89,34.32Z"/><path class="cls-1" d="M378.42,488.48v83.13c0,34.95,16.33,48.42,36.56,48.42,22.88,0,38.61-14.71,38.61-48.42V488.48h9.8v82.11c0,42.29-22.87,57.82-48.82,57.82-24.1,0-46-14.09-46-56.18V488.48Z"/><path class="cls-1" d="M511.23,506.45v21.66h28v8h-28v63.74c0,12.46,3.88,20.22,14.29,20.22a36.3,36.3,0,0,0,11.23-1.43L538,626a34,34,0,0,1-13.69,2.46c-7.15,0-13.07-2.25-16.75-7-4.49-5.1-6.13-13.48-6.13-23.49v-61.9H484.88v-8h16.55v-18Z"/><path class="cls-1" d="M573.55,500.12c0,4.49-3.07,8.37-8.18,8.37-4.48,0-7.55-3.88-7.55-8.37s3.48-8.58,8-8.58S573.55,495.42,573.55,500.12Zm-12.66,126V528.11h9.8v98.05Z"/><path class="cls-1" d="M603.59,481.12h9.81v145h-9.81Z"/><path class="cls-1" d="M659.57,500.12c0,4.49-3.06,8.37-8.18,8.37-4.49,0-7.56-3.88-7.56-8.37s3.48-8.58,8-8.58S659.57,495.42,659.57,500.12Zm-12.67,126V528.11h9.81v98.05Z"/><path class="cls-1" d="M703.1,506.45v21.66h28v8h-28v63.74c0,12.46,3.88,20.22,14.29,20.22a36.3,36.3,0,0,0,11.23-1.43l1.23,7.35a34,34,0,0,1-13.69,2.46c-7.15,0-13.07-2.25-16.75-7-4.49-5.1-6.13-13.48-6.13-23.49v-61.9H676.74v-8h16.55v-18Z"/><path class="cls-1" d="M751.11,528.11l25.74,64.14c2.65,7,5.31,14.91,7.15,21h.4c2-5.92,4.49-13.69,7.56-21.65l23.91-63.54h10.41l-29.41,73.13c-11.85,30.44-20.22,48.62-33.1,59.85a55.87,55.87,0,0,1-17.15,10.21l-3.06-8.18a51.25,51.25,0,0,0,17.15-10.82,77.82,77.82,0,0,0,16.34-24.72,12.49,12.49,0,0,0,1.22-4.28,13.89,13.89,0,0,0-1.22-4.3l-36.36-90.9Z"/><path class="cls-1" d="M964.61,565.08H912.72v40.45h58v20.63H887.6V488.48h80.07v20.63H912.72v35.54h51.88Z"/><path class="cls-1" d="M1008.55,526.68l11.86,18.79c3.26,5.32,6.13,10.21,9,15.32h.4c2.86-5.51,5.73-10.62,8.79-15.74l11-18.38H1077l-33.3,47.8,33.92,51.68H1049l-12.05-19.82c-3.27-5.31-6.13-10.61-9-16.13h-.41c-2.87,5.71-5.93,10.61-9,16.13l-11.44,19.82H979.34l34.52-50.66-33.3-48.82Z"/><path class="cls-1" d="M1092.75,559.77c0-13.07-.41-23.71-.82-33.1H1114l1.22,15.31h.41c7.35-11.23,19-17.57,34.11-17.57,22.87,0,41.88,19.61,41.88,50.67,0,35.94-22.68,53.31-45.35,53.31-12.46,0-22.88-5.32-28-13.28h-.4v51.48h-25.12Zm25.12,24.71a38.85,38.85,0,0,0,.61,7A23,23,0,0,0,1140.75,609c15.93,0,25.32-13.28,25.32-32.89,0-17.58-8.58-31.87-24.7-31.87-10.43,0-20,7.56-22.68,18.59a32.46,32.46,0,0,0-.82,6.32Z"/><path class="cls-1" d="M1230.05,583.47c.61,18,14.5,25.74,30.64,25.74a80.26,80.26,0,0,0,27.58-4.49l3.68,17.16c-8.59,3.67-20.43,6.32-34.73,6.32-32.28,0-51.28-19.82-51.28-50.25,0-27.58,16.75-53.53,48.61-53.53,32.28,0,42.91,26.56,42.91,48.42a61.42,61.42,0,0,1-.82,10.62Zm43.72-17.57c.21-9.19-3.89-24.31-20.63-24.31-15.53,0-22.07,14.09-23.09,24.31Z"/><path class="cls-1" d="M1317.71,558.74c0-13.47-.21-23.28-.81-32.07h21.65l1,18.79h.61c4.91-13.88,16.55-21,27.38-21a26.3,26.3,0,0,1,5.92.62v23.49a40.16,40.16,0,0,0-7.56-.61c-11.85,0-20.22,7.56-22.47,19a44.26,44.26,0,0,0-.62,7.56v51.68h-25.13Z"/><path class="cls-1" d="M1424,501.14v25.54h23.89v18.79H1424v43.92c0,12.26,3.26,18.39,12.87,18.39,4.49,0,6.94-.21,9.81-1l.4,19c-3.67,1.43-10.42,2.65-18.17,2.65-9.4,0-17-3.07-21.66-8.18-5.51-5.72-8-14.91-8-28V545.47h-14.1V526.68h14.1V508.09Z"/><path class="cls-1" d="M1465.84,602.87c5.52,3.47,16.35,7.35,25.34,7.35,11,0,15.93-4.7,15.93-11.24,0-6.74-4.08-10-16.34-14.5-19.41-6.53-27.38-17.15-27.38-29,0-17.57,14.5-31.06,37.59-31.06,11,0,20.63,2.66,26.56,5.93l-5.11,17.57a43.87,43.87,0,0,0-21-5.72c-9,0-13.9,4.49-13.9,10.62,0,6.32,4.7,9.19,17.37,13.88,18.17,6.33,26.35,15.53,26.55,30.24,0,18.18-14.1,31.25-40.45,31.25-12.05,0-22.87-2.86-30.24-6.94Z"/><path class="cls-1" d="M1553.45,527.3a10.86,10.86,0,0,1-11,11,11,11,0,1,1,.06-22A10.83,10.83,0,0,1,1553.45,527.3Zm-19.83,0a8.79,8.79,0,0,0,8.85,9.05c4.88.07,8.58-4,8.58-9a8.72,8.72,0,1,0-17.42-.06Zm6.79,6h-2.12V521.88a22.14,22.14,0,0,1,4-.34,5.34,5.34,0,0,1,3.57.89,2.9,2.9,0,0,1-1,5.14v.14c1,.41,1.52,1.3,1.85,2.81a7.87,7.87,0,0,0,.9,2.81h-2.2a8.89,8.89,0,0,1-1-3c-.27-1.3-1-1.85-2.6-1.85h-1.38Zm0-6.45h1.44c1.52,0,2.95-.48,2.95-1.78,0-1.1-.75-1.93-2.74-1.93a7.85,7.85,0,0,0-1.65.14Z"/><path class="cls-1" d="M1583.25,65.06a23.41,23.41,0,0,1-23.81,23.79c-13.46,0-24.11-10.34-24.11-23.79,0-13.17,10.66-23.52,24.25-23.52A23.33,23.33,0,0,1,1583.25,65.06Zm-42.73,0c0,10.93,8.13,19.51,19.06,19.51,10.52.15,18.48-8.57,18.48-19.37s-8-19.51-18.76-19.51S1540.51,54.42,1540.51,65.06Zm14.62,13h-4.58V53.38a47.71,47.71,0,0,1,8.57-.74c4.13,0,6.22.74,7.69,1.91a6.35,6.35,0,0,1,2.53,5.33c0,3-2.22,4.87-4.75,5.76v.31c2.08.89,3.27,2.8,4,6.06.75,3.69,1.33,5.18,1.94,6.06h-4.75c-.75-.89-1.33-3.11-2.08-6.37-.58-2.8-2.19-4-5.61-4h-3Zm0-13.9h3.11c3.27,0,6.35-1,6.35-3.84,0-2.37-1.61-4.15-5.91-4.15a16.91,16.91,0,0,0-3.55.31Z"/></svg>